<svg width="634" height="100" viewBox="0 0 634 634" fill="none" xmlns="http://www.w3.org/2000/svg"><path d="M284.924 4.6416L295.795 108.072" stroke="#C9CDD3" stroke-width="6" stroke-linecap="round"></path><path d="M252.449 9.70605L274.072 111.433" stroke="#C9CDD3" stroke-width="6" stroke-linecap="round"></path><path d="M220.682 18.1367L252.819 117.047" stroke="#C9CDD3" stroke-width="6" stroke-linecap="round"></path><path d="M189.97 29.8418L232.27 124.851" stroke="#C9CDD3" stroke-width="6" stroke-linecap="round"></path><path d="M160.649 44.6934L212.649 134.76" stroke="#C9CDD3" stroke-width="6" stroke-linecap="round"></path><path d="M133.042 62.5273L194.172 146.665" stroke="#C9CDD3" stroke-width="6" stroke-linecap="round"></path><path d="M107.45 83.1504L177.04 160.437" stroke="#C9CDD3" stroke-width="6" stroke-linecap="round"></path><path d="M84.1543 106.336L161.441 175.926" stroke="#C9CDD3" stroke-width="6" stroke-linecap="round"></path><path d="M63.4092 131.829L147.547 192.959" stroke="#C9CDD3" stroke-width="6" stroke-linecap="round"></path><path d="M45.4434 159.351L135.51 211.351" stroke="#C9CDD3" stroke-width="6" stroke-linecap="round"></path><path d="M30.4521 188.6L125.461 230.9" stroke="#C9CDD3" stroke-width="6" stroke-linecap="round"></path><path d="M18.5996 219.256L117.509 251.394" stroke="#C9CDD3" stroke-width="6" stroke-linecap="round"></path><path d="M10.0176 250.982L111.745 272.605" stroke="#C9CDD3" stroke-width="6" stroke-linecap="round"></path><path d="M4.79883 283.433L108.229 294.304" stroke="#C9CDD3" stroke-width="6" stroke-linecap="round"></path><path d="M3 316.25H107" stroke="#C9CDD3" stroke-width="6" stroke-linecap="round"></path><path d="M4.6416 349.076L108.072 338.205" stroke="#C9CDD3" stroke-width="6" stroke-linecap="round"></path><path d="M9.70605 381.551L111.433 359.928" stroke="#C9CDD3" stroke-width="6" stroke-linecap="round"></path><path d="M18.1367 413.318L117.047 381.181" stroke="#C9CDD3" stroke-width="6" stroke-linecap="round"></path><path d="M29.8418 444.03L124.851 401.73" stroke="#C9CDD3" stroke-width="6" stroke-linecap="round"></path><path d="M44.6934 473.351L134.76 421.351" stroke="#C9CDD3" stroke-width="6" stroke-linecap="round"></path><path d="M62.5273 500.958L146.665 439.828" stroke="#C9CDD3" stroke-width="6" stroke-linecap="round"></path><path d="M83.1504 526.55L160.437 456.96" stroke="#C9CDD3" stroke-width="6" stroke-linecap="round"></path><path d="M106.336 549.846L175.926 472.559" stroke="#C9CDD3" stroke-width="6" stroke-linecap="round"></path><path d="M131.829 570.591L192.959 486.453" stroke="#C9CDD3" stroke-width="6" stroke-linecap="round"></path><path d="M159.351 588.557L211.351 498.49" stroke="#C9CDD3" stroke-width="6" stroke-linecap="round"></path><path d="M188.6 603.548L230.9 508.539" stroke="#C9CDD3" stroke-width="6" stroke-linecap="round"></path><path d="M219.256 615.4L251.394 516.491" stroke="#C9CDD3" stroke-width="6" stroke-linecap="round"></path><path d="M250.982 623.982L272.605 522.255" stroke="#C9CDD3" stroke-width="6" stroke-linecap="round"></path><path d="M283.433 629.201L294.304 525.771" stroke="#C9CDD3" stroke-width="6" stroke-linecap="round"></path><path d="M316.25 631V527" stroke="#C9CDD3" stroke-width="6" stroke-linecap="round"></path><path d="M349.076 629.358L338.205 525.928" stroke="#C9CDD3" stroke-width="6" stroke-linecap="round"></path><path d="M381.551 624.294L359.928 522.567" stroke="#C9CDD3" stroke-width="6" stroke-linecap="round"></path><path d="M413.318 615.863L381.181 516.953" stroke="#C9CDD3" stroke-width="6" stroke-linecap="round"></path><path d="M444.03 604.158L401.73 509.149" stroke="#C9CDD3" stroke-width="6" stroke-linecap="round"></path><path d="M473.351 589.307L421.351 499.24" stroke="#C9CDD3" stroke-width="6" stroke-linecap="round"></path><path d="M500.958 571.473L439.828 487.335" stroke="#C9CDD3" stroke-width="6" stroke-linecap="round"></path><path d="M526.55 550.85L456.96 473.563" stroke="#C9CDD3" stroke-width="6" stroke-linecap="round"></path><path d="M549.846 527.664L472.559 458.074" stroke="#C9CDD3" stroke-width="6" stroke-linecap="round"></path><path d="M570.591 502.171L486.453 441.041" stroke="#C9CDD3" stroke-width="6" stroke-linecap="round"></path><path d="M588.557 474.649L498.49 422.649" stroke="#C9CDD3" stroke-width="6" stroke-linecap="round"></path><path d="M603.548 445.4L508.539 403.1" stroke="#C9CDD3" stroke-width="6" stroke-linecap="round"></path><path d="M615.4 414.744L516.491 382.606" stroke="#C9CDD3" stroke-width="6" stroke-linecap="round"></path><path d="M623.982 383.018L522.255 361.395" stroke="#C9CDD3" stroke-width="6" stroke-linecap="round"></path><path d="M629.201 350.567L525.771 339.696" stroke="#C9CDD3" stroke-width="6" stroke-linecap="round"></path><path d="M631 317.75H527" stroke="#C9CDD3" stroke-width="6" stroke-linecap="round"></path><path d="M629.358 284.924L525.928 295.795" stroke="#C9CDD3" stroke-width="6" stroke-linecap="round"></path><path d="M624.294 252.449L522.567 274.072" stroke="#C9CDD3" stroke-width="6" stroke-linecap="round"></path><path d="M615.863 220.682L516.953 252.819" stroke="#C9CDD3" stroke-width="6" stroke-linecap="round"></path><path d="M604.158 189.97L509.149 232.27" stroke="#C9CDD3" stroke-width="6" stroke-linecap="round"></path><path d="M589.307 160.649L499.24 212.649" stroke="#C9CDD3" stroke-width="6" stroke-linecap="round"></path><path d="M571.473 133.042L487.335 194.172" stroke="#C9CDD3" stroke-width="6" stroke-linecap="round"></path><path d="M550.85 107.45L473.563 177.04" stroke="#C9CDD3" stroke-width="6" stroke-linecap="round"></path><path d="M527.664 84.1543L458.074 161.441" stroke="#C9CDD3" stroke-width="6" stroke-linecap="round"></path><path d="M502.171 63.4092L441.041 147.547" stroke="#C9CDD3" stroke-width="6" stroke-linecap="round"></path><path d="M474.649 45.4434L422.649 135.51" stroke="#C9CDD3" stroke-width="6" stroke-linecap="round"></path><path d="M445.4 30.4521L403.1 125.461" stroke="#C9CDD3" stroke-width="6" stroke-linecap="round"></path><path d="M414.744 18.5996L382.606 117.509" stroke="#C9CDD3" stroke-width="6" stroke-linecap="round"></path><path d="M383.018 10.0176L361.395 111.745" stroke="#C9CDD3" stroke-width="6" stroke-linecap="round"></path><path d="M350.567 4.79883L339.696 108.229" stroke="#C9CDD3" stroke-width="6" stroke-linecap="round"></path><path d="M317.75 3V107" stroke="#C9CDD3" stroke-width="6" stroke-linecap="round"></path></svg>