<svg width="314" height="244" viewBox="0 0 314 244" fill="none" xmlns="http://www.w3.org/2000/svg">
<g clip-path="url(#clip0_3030_32726)">
<g filter="url(#filter0_d_3030_32726)">
<path fill-rule="evenodd" clip-rule="evenodd" d="M14.5703 123.925C14.5703 145.718 28.4434 167.512 56.1896 184.14C111.682 217.395 201.653 217.395 257.146 184.14C284.892 167.512 298.765 145.718 298.765 123.925V95.5393C298.765 73.7459 284.892 51.9524 257.146 35.3246C201.653 2.06889 111.682 2.06889 56.1896 35.3246C28.4434 51.9524 14.5703 73.7459 14.5703 95.5393V123.925Z" fill="white"/>
<circle r="75.566" transform="matrix(0.8663 -0.499524 0.8663 0.499524 156.668 94.3867)" fill="white"/>
<circle r="106.951" transform="matrix(0.8663 -0.499524 0.8663 0.499524 156.667 92.6797)" fill="#1C9B88" stroke="#1C9B88" stroke-width="2"/>
</g>
<g opacity="0.4">
<g opacity="0.4">
<path opacity="0.4" d="M184.769 73.5104C169.067 64.4601 143.684 64.4601 128.091 73.5104C128.018 73.5467 127.946 73.6011 127.873 73.6374C117.829 79.5623 114.408 87.8311 117.593 95.3548C119.285 99.3714 122.851 103.17 128.273 106.296C143.976 115.346 169.358 115.346 184.969 106.296C200.563 97.2447 200.471 82.5606 184.769 73.5104Z" fill="white"/>
<path opacity="0.4" d="M192.083 69.2588C172.342 57.8825 140.337 57.8825 120.74 69.2588C120.212 69.5678 119.703 69.8768 119.212 70.1858L120.212 70.5855C120.667 70.2949 121.122 70.0223 121.595 69.7497C140.737 58.6455 171.978 58.6455 191.247 69.7497C210.515 80.8538 210.624 98.9365 191.483 110.04C172.342 121.144 141.1 121.144 121.832 110.04C114.772 105.969 110.278 100.953 108.367 95.6829L107.148 95.7193C109.077 101.153 113.699 106.315 120.977 110.531C140.718 121.907 172.724 121.907 192.338 110.531C211.935 99.1542 211.825 80.654 192.083 69.2588Z" fill="white"/>
<path opacity="0.4" d="M199.215 65.1327C175.525 51.4662 137.097 51.4662 113.57 65.1327C112.606 65.6958 111.678 66.2775 110.786 66.8591L113.461 67.9132C114.225 67.4043 115.026 66.9134 115.844 66.4409C138.134 53.5017 174.524 53.5017 196.959 66.4409C219.394 79.3807 219.521 100.426 197.232 113.365C174.942 126.305 138.552 126.305 116.117 113.365C107.602 108.458 102.289 102.37 100.215 95.991L96.9941 96.1002C99.1413 102.897 104.764 109.421 113.861 114.655C137.551 128.322 175.98 128.322 199.524 114.655C223.033 101.025 222.905 78.7811 199.215 65.1327Z" fill="white"/>
<path opacity="0.4" d="M213.79 56.6651C182.003 38.346 130.456 38.346 98.8874 56.6651C67.3005 75.0019 67.4826 104.825 99.2511 123.143C112.625 130.849 129.492 135.32 146.904 136.537L146.741 132.558C131.129 131.339 116.063 127.269 104.055 120.345C74.9425 103.553 74.7788 76.2379 103.709 59.4456C132.639 42.6532 179.856 42.6532 208.968 59.4456C227.837 70.3315 234.551 85.6151 229.074 99.6089L235.533 100.954C241.847 85.5608 234.587 68.6593 213.79 56.6651Z" fill="white"/>
<path opacity="0.4" d="M94.028 126.177C59.3479 106.168 59.1663 73.6371 93.6099 53.6282C128.071 33.6192 184.331 33.6192 219.011 53.6282C253.691 73.6371 253.873 106.168 219.411 126.177C184.968 146.186 128.727 146.186 94.028 126.177ZM220.157 52.974C203.054 43.1058 180.346 37.6719 156.238 37.6719C132.129 37.6719 109.476 43.1058 92.4816 52.974C75.4871 62.8419 66.171 75.9451 66.2624 89.9026C66.3352 103.859 75.7965 116.963 92.8998 126.831C110.004 136.699 132.711 142.133 156.819 142.133C180.929 142.133 203.563 136.699 220.558 126.831C237.552 116.963 246.868 103.842 246.795 89.9026C246.722 75.9451 237.261 62.8419 220.157 52.974Z" fill="white"/>
<path opacity="0.4" d="M271.485 66.4427L268.719 66.9152C281.019 86.9246 276.889 109.587 256.328 127.76L258.639 128.705C271.63 117.292 278.563 103.898 278.49 89.8866C278.436 81.7812 276.033 73.8757 271.485 66.4427ZM238.151 37.638C215.607 25.8252 186.695 19.3555 156.127 19.3555C123.558 19.3555 92.9717 26.6976 70.0093 40.0187C47.0471 53.3399 34.456 71.0588 34.5652 89.905C34.6743 108.751 47.4473 126.47 70.5552 139.791C93.6633 153.112 124.34 160.454 156.91 160.454C176.415 160.454 195.211 157.819 212.077 152.858L210.677 151.422C166.044 164.489 109.966 160.236 72.5387 138.664C25.9224 111.786 25.6859 68.0605 71.9928 41.1819C116.899 15.1211 189.334 14.3214 236.168 38.8011L238.151 37.638Z" fill="white"/>
<path opacity="0.4" d="M255.185 32.6383C241.793 24.9145 226.164 18.9173 208.787 14.8464C191.993 10.921 174.271 8.92188 156.094 8.92188C137.917 8.92188 120.213 10.921 103.455 14.8464C86.1149 18.9173 70.558 24.9145 57.2575 32.6383C43.9385 40.362 33.6582 49.376 26.653 59.4258C19.9027 69.1305 16.5183 79.3804 16.5729 89.9029C16.6275 100.425 20.1392 110.675 26.9988 120.38C27.4355 121.016 27.9086 121.633 28.3634 122.251L31.0745 121.743C8.98552 92.6835 18.3379 57.5359 59.2405 33.8014C112.534 2.8701 199.562 2.8701 253.22 33.8014C306.877 64.7327 307.15 115.091 253.856 146.023C220.687 165.268 174.471 172.556 131.348 167.849L130.657 169.466C139.299 170.412 148.088 170.902 157.003 170.902C175.181 170.902 192.885 168.903 209.642 164.978C226.982 160.907 242.521 154.91 255.84 147.185C269.159 139.462 279.457 130.448 286.426 120.398C293.177 110.693 296.561 100.443 296.506 89.9209C296.451 79.3983 292.94 69.1489 286.08 59.4443C278.984 49.3942 268.576 40.3802 255.185 32.6383Z" fill="white"/>
<path opacity="0.4" d="M264.171 27.423C249.542 18.9904 232.511 12.4662 213.534 8.01368C202.945 5.54209 192.027 3.76109 180.855 2.70703L181.055 3.23406C211.26 6.12364 240.281 14.3017 263.607 27.7501C323.033 62.0254 323.36 117.781 264.317 152.057C205.273 186.332 108.875 186.332 49.4497 152.057C-9.97581 117.781 -10.2851 62.0254 48.7583 27.7501C55.8362 23.6429 63.4602 20.0263 71.5024 16.9005L71.3203 16.3916C63.0595 19.5902 55.3449 23.2794 48.1942 27.423C33.6562 35.8554 22.4116 45.6873 14.7879 56.6642C7.41878 67.2411 3.72515 78.4359 3.79793 89.9213C3.87071 101.389 7.6917 112.584 15.1699 123.179C22.9211 134.138 34.2567 143.969 48.8856 152.402C63.5146 160.834 80.545 167.359 99.523 171.811C117.845 176.1 137.187 178.281 157.038 178.281C176.87 178.281 196.194 176.1 214.48 171.811C233.403 167.359 250.361 160.834 264.899 152.402C279.419 143.969 290.663 134.138 298.287 123.179C305.638 112.584 309.35 101.407 309.277 89.9213C309.204 78.4539 305.384 67.259 297.905 56.6642C290.136 45.6873 278.8 35.8554 264.171 27.423Z" fill="white"/>
</g>
</g>
<g opacity="0.2">
<path opacity="0.2" d="M228.111 93.6453C226.637 97.8438 223.344 101.424 218.213 104.404C214.174 106.749 209.825 108.33 205.149 109.129C200.473 109.947 195.888 110.329 191.411 110.311C186.935 110.274 179.148 110.093 168.067 109.729C164.974 109.638 162.372 109.638 160.279 109.729C158.187 109.82 156.44 109.984 155.039 110.238C153.638 110.492 152.347 110.819 151.145 111.201C149.963 111.583 147.943 112.31 145.086 113.346C139.246 115.69 133.933 115.472 129.166 112.728C126.691 111.292 125.399 109.62 125.308 107.712C125.217 105.804 126.782 103.914 129.948 102.078C133.933 99.77 138.009 98.1164 142.157 97.1351C146.305 96.1532 150.527 95.6264 154.785 95.5173C159.042 95.4266 164.428 95.4993 170.96 95.7535C176.673 95.9718 180.877 96.081 183.588 96.081C186.299 96.081 188.955 95.8627 191.539 95.4445C194.123 95.0269 196.397 94.2454 198.344 93.1185C202.146 90.9196 203.911 88.2298 203.693 85.086C203.457 81.9416 201.11 79.0704 196.615 76.4718C191.357 73.4365 186.189 71.9827 181.058 72.0734C175.946 72.1647 169.959 73.2188 163.118 75.1994C156.131 77.3803 150.381 77.162 145.832 74.545C143.158 73.0005 141.829 71.1649 141.884 69.0203C141.921 66.8762 143.03 65.1678 145.214 63.8953C149.726 61.2788 155.731 59.4612 163.282 58.4619C170.815 57.4621 178.893 57.6804 187.518 59.1342C196.142 60.588 204.166 63.4777 211.626 67.7664C218.541 71.7644 223.399 76.0172 226.146 80.5426C228.93 85.086 229.585 89.4474 228.111 93.6453Z" fill="white"/>
</g>
<path d="M199.562 72.7661C199.344 69.6945 197.033 66.8961 192.666 64.3882C187.553 61.4442 182.495 60.0083 177.527 60.099C172.542 60.1902 166.719 61.2079 160.06 63.1342C153.255 65.2604 147.651 65.0426 143.23 62.4983C140.664 61.0081 139.372 59.2448 139.372 57.1914L139.336 66.9868C139.336 69.0407 140.609 70.8214 143.193 72.2936C147.615 74.8379 153.219 75.0557 160.023 72.9296C166.683 71.0033 172.506 69.9856 177.491 69.8949C182.476 69.8037 187.517 71.2211 192.629 74.1835C196.996 76.7099 199.289 79.5083 199.525 82.5615C199.544 82.7434 199.544 82.9248 199.544 83.1067L199.58 73.3114C199.58 73.1294 199.58 72.966 199.562 72.7661Z" fill="#4D826E"/>
<path d="M224.07 76.8008L224.033 86.5961C224.033 88.0499 223.779 89.4858 223.287 90.8853L223.324 81.0899C223.815 79.6905 224.052 78.2546 224.07 76.8008Z" fill="#4D826E"/>
<path d="M213.68 91.5732C209.75 93.8448 205.511 95.3899 200.944 96.1713C196.377 96.9707 191.919 97.3525 187.57 97.3161C183.204 97.2982 175.635 97.0983 164.827 96.753C161.806 96.6802 159.295 96.6802 157.258 96.753C155.22 96.8257 153.509 97.0071 152.144 97.2618C150.78 97.516 149.524 97.825 148.36 98.2068C147.195 98.5885 145.23 99.2788 142.465 100.297C136.77 102.568 131.602 102.368 126.963 99.6969C124.542 98.2975 123.287 96.6802 123.214 94.8082C123.214 94.7539 123.214 94.6991 123.214 94.6627L123.178 104.459C123.178 104.513 123.178 104.567 123.178 104.604C123.251 106.458 124.506 108.093 126.926 109.492C131.584 112.182 136.733 112.382 142.428 110.092C145.194 109.075 147.178 108.384 148.324 108.002C149.488 107.62 150.744 107.312 152.108 107.057C153.473 106.803 155.165 106.639 157.221 106.548C159.259 106.476 161.788 106.476 164.79 106.548C175.598 106.894 183.167 107.094 187.534 107.111C191.883 107.13 196.359 106.748 200.908 105.967C205.475 105.185 209.714 103.641 213.645 101.369C218.63 98.4794 221.85 94.9901 223.288 90.9008L223.324 81.1055C221.868 85.1943 218.666 88.684 213.68 91.5732Z" fill="#4D826E"/>
<path d="M223.308 81.1078C221.871 85.1971 218.65 88.6863 213.665 91.576C209.734 93.8477 205.495 95.3922 200.928 96.1737C196.361 96.9731 191.903 97.3548 187.554 97.3185C183.188 97.3005 175.618 97.1007 164.81 96.7553C161.79 96.6825 159.279 96.6825 157.241 96.7553C155.203 96.8281 153.493 97.0095 152.128 97.2641C150.764 97.5183 149.508 97.8273 148.344 98.2091C147.179 98.5909 145.214 99.2811 142.448 100.299C136.753 102.571 131.586 102.371 126.946 99.6993C124.526 98.2998 123.271 96.6825 123.198 94.8106C123.125 92.9386 124.617 91.1215 127.729 89.3223C131.604 87.0685 135.571 85.4692 139.628 84.5063C143.686 83.5614 147.779 83.0341 151.928 82.9434C156.077 82.8527 161.335 82.9254 167.685 83.1617C173.253 83.3795 177.347 83.4886 179.985 83.4886C182.624 83.4886 185.207 83.2888 187.736 82.8706C190.266 82.4524 192.467 81.7074 194.359 80.5989C198.053 78.4544 199.781 75.8373 199.563 72.7662C199.345 69.6946 197.034 66.8962 192.667 64.3883C187.554 61.4443 182.496 60.0084 177.529 60.0991C172.543 60.1903 166.721 61.2081 160.062 63.1343C153.256 65.2605 147.652 65.0427 143.231 62.4984C140.629 60.9897 139.337 59.1906 139.374 57.1008C139.41 55.0105 140.483 53.3388 142.612 52.1211C146.997 49.5768 152.856 47.814 160.207 46.8327C167.54 45.8513 175.418 46.0694 183.806 47.4869C192.194 48.9045 200.036 51.7032 207.278 55.9012C214.028 59.7901 218.741 63.9337 221.434 68.35C224.127 72.7662 224.745 77.019 223.308 81.1078Z" fill="white"/>
<g opacity="0.2">
<path opacity="0.2" d="M124.579 114.271C127.727 116.089 129.31 118.234 129.328 120.723C129.347 123.195 127.782 125.358 124.652 127.175C121.177 129.192 117.32 130.137 113.08 129.992C108.84 129.846 105.256 128.92 102.29 127.229C99.2334 125.466 97.5598 123.359 97.2505 120.905C96.9411 118.451 98.5423 116.198 102.072 114.163C105.202 112.345 108.932 111.454 113.262 111.473C117.611 111.491 121.377 112.418 124.579 114.271Z" fill="white"/>
</g>
<path d="M95.9414 119.198L95.9778 109.402C95.9778 109.584 95.9963 109.784 96.0143 109.966C96.3057 112.237 97.8705 114.2 100.709 115.836C103.456 117.417 106.786 118.271 110.734 118.416C114.683 118.544 118.267 117.671 121.488 115.799C124.399 114.109 125.836 112.11 125.836 109.802L125.8 119.597C125.818 121.905 124.363 123.905 121.451 125.595C118.213 127.467 114.628 128.339 110.698 128.212C106.749 128.085 103.42 127.212 100.672 125.631C97.8341 123.996 96.2693 122.033 95.9778 119.761C95.9599 119.579 95.9414 119.38 95.9414 119.198Z" fill="#4D826E"/>
<path d="M121.415 103.807C124.344 105.497 125.818 107.496 125.818 109.804C125.836 112.112 124.381 114.111 121.47 115.801C118.231 117.673 114.647 118.546 110.717 118.418C106.768 118.291 103.438 117.419 100.691 115.837C97.8523 114.202 96.2874 112.239 95.9965 109.967C95.7056 107.696 97.1976 105.606 100.472 103.698C103.384 102.008 106.859 101.172 110.88 101.208C114.938 101.226 118.449 102.098 121.415 103.807Z" fill="white"/>
</g>
<defs>
<filter id="filter0_d_3030_32726" x="-1.42969" y="10.3828" width="316.195" height="230.699" filterUnits="userSpaceOnUse" color-interpolation-filters="sRGB">
<feFlood flood-opacity="0" result="BackgroundImageFix"/>
<feColorMatrix in="SourceAlpha" type="matrix" values="0 0 0 0 0 0 0 0 0 0 0 0 0 0 0 0 0 0 127 0" result="hardAlpha"/>
<feOffset dy="16"/>
<feGaussianBlur stdDeviation="8"/>
<feComposite in2="hardAlpha" operator="out"/>
<feColorMatrix type="matrix" values="0 0 0 0 1 0 0 0 0 1 0 0 0 0 1 0 0 0 0.1 0"/>
<feBlend mode="normal" in2="BackgroundImageFix" result="effect1_dropShadow_3030_32726"/>
<feBlend mode="normal" in="SourceGraphic" in2="effect1_dropShadow_3030_32726" result="shape"/>
</filter>
<clipPath id="clip0_3030_32726">
<rect width="314" height="244" fill="white"/>
</clipPath>
</defs>
</svg>
